<?xml version="1.0" encoding="UTF-8" standalone="no"?>
<svg
   xmlns:dc="http://purl.org/dc/elements/1.1/"
   xmlns:cc="http://creativecommons.org/ns#"
   xmlns:rdf="http://www.w3.org/1999/02/22-rdf-syntax-ns#"
   xmlns:svg="http://www.w3.org/2000/svg"
   xmlns="http://www.w3.org/2000/svg"
   xmlns:sodipodi="http://sodipodi.sourceforge.net/DTD/sodipodi-0.dtd"
   xmlns:inkscape="http://www.inkscape.org/namespaces/inkscape"
   version="1.1"
   id="svg2"
   xml:space="preserve"
   width="466.12"
   height="71.959999"
   viewBox="0 0 466.12 71.959999"
   sodipodi:docname="MIT.Portugal logo.svg"
   inkscape:version="1.0.1 (3bc2e813f5, 2020-09-07)"><metadata
     id="metadata8"><rdf:RDF><cc:Work
         rdf:about=""><dc:format>image/svg+xml</dc:format><dc:type
           rdf:resource="http://purl.org/dc/dcmitype/StillImage" /><dc:title></dc:title></cc:Work></rdf:RDF></metadata><defs
     id="defs6" /><sodipodi:namedview
     pagecolor="#ffffff"
     bordercolor="#666666"
     borderopacity="1"
     objecttolerance="10"
     gridtolerance="10"
     guidetolerance="10"
     inkscape:pageopacity="0"
     inkscape:pageshadow="2"
     inkscape:window-width="828"
     inkscape:window-height="480"
     id="namedview4"
     showgrid="false"
     inkscape:zoom="2.7417833"
     inkscape:cx="233.06"
     inkscape:cy="35.98"
     inkscape:window-x="0"
     inkscape:window-y="6"
     inkscape:window-maximized="0"
     inkscape:current-layer="g10" /><g
     id="g10"
     inkscape:groupmode="layer"
     inkscape:label="ink_ext_XXXXXX"
     transform="matrix(1.3333333,0,0,-1.3333333,0,71.96)"><g
       id="g12"
       transform="scale(0.1)"><path
         d="M 0,120.691 V 539.66 h 183.949 l 68.473,-283.762 h 1.156 l 66.16,283.762 H 500.211 V 120.691 H 398.66 v 350.5 l -1.16,1.161 -98.078,-351.661 H 194.98 l -92.269,354.559 -1.16,-1.16 V 120.691 H 0"
         style="fill:#a31832;fill-opacity:1;fill-rule:nonzero;stroke:none"
         id="path14" /><path
         d="M 581.98,120.691 V 539.66 H 698.039 V 120.691 H 581.98"
         style="fill:#a31832;fill-opacity:1;fill-rule:nonzero;stroke:none"
         id="path16" /><path
         d="M 870.371,458.422 H 742.121 V 539.66 H 1117.57 V 458.422 H 986.43 V 120.691 H 870.371 v 337.731"
         style="fill:#a31832;fill-opacity:1;fill-rule:nonzero;stroke:none"
         id="path18" /><path
         d="m 1304.38,318.57 h 45.85 c 88.2,1.739 111.99,48.168 111.99,92.852 0,62.09 -34.23,88.199 -122.44,88.199 h -35.4 z M 1199.35,120.691 v 40.039 h 49.91 v 338.891 h -49.91 v 40.039 h 156.1 c 92.85,0 161.9,-35.969 161.9,-128.82 0,-107.93 -91.1,-132.309 -163.64,-132.309 h -49.33 V 160.73 h 53.39 v -40.039 h -158.42"
         style="fill:#8b8c8f;fill-opacity:1;fill-rule:nonzero;stroke:none"
         id="path20" /><path
         d="m 1591.02,254.738 c 0,-59.769 37.13,-100.386 93.42,-100.386 56.29,0 93.43,40.617 93.43,100.386 0,59.774 -37.14,100.391 -93.43,100.391 -56.29,0 -93.42,-40.617 -93.42,-100.391 z m -49.91,0 c 0,85.891 62.67,139.852 143.33,139.852 80.66,0 143.33,-53.961 143.33,-139.852 0,-89.359 -56.87,-139.847 -143.33,-139.847 -86.46,0 -143.33,50.488 -143.33,139.847"
         style="fill:#8b8c8f;fill-opacity:1;fill-rule:nonzero;stroke:none"
         id="path22" /><path
         d="m 1955.99,335.98 h 1.16 c 19.15,42.942 57.45,58.61 103.29,58.61 v -44.102 c -82.4,-5.797 -101.55,-31.328 -101.55,-99.226 v -91.684 h 49.9 V 120.691 H 1864.3 v 38.887 h 44.69 V 349.91 h -44.69 v 38.879 h 91.69 V 335.98"
         style="fill:#8b8c8f;fill-opacity:1;fill-rule:nonzero;stroke:none"
         id="path24" /><path
         d="M 2236.82,388.789 V 349.91 h -51.06 V 198.449 c 0,-37.14 5.22,-39.461 25.53,-39.461 8.13,0 16.83,1.16 24.96,1.742 v -40.039 c -13.93,-4.062 -28.44,-5.8 -42.94,-5.8 -46.43,0 -57.46,12.769 -57.46,70.218 V 349.91 h -45.84 v 38.879 h 45.84 v 92.852 h 49.91 v -92.852 h 51.06"
         style="fill:#8b8c8f;fill-opacity:1;fill-rule:nonzero;stroke:none"
         id="path26" /><path
         d="m 2507.22,162.48 h -1.16 c -23.21,-29.601 -60.35,-47.589 -98.64,-47.589 -57.45,0 -87.05,27.847 -85.31,87.629 v 147.39 h -38.88 v 38.879 h 88.79 v -189.18 c 0,-30.168 22.05,-42.937 44.1,-42.937 38.3,0 64.41,19.726 91.1,44.68 V 349.91 h -45.84 v 38.879 h 95.74 V 159.578 h 42.94 v -38.887 h -92.84 v 41.789"
         style="fill:#8b8c8f;fill-opacity:1;fill-rule:nonzero;stroke:none"
         id="path28" /><path
         d="m 2690.56,254.16 c 0,-47.582 29.6,-99.808 87.63,-99.808 34.81,0 85.3,35.976 85.3,99.808 0,62.668 -30.76,100.969 -85.3,100.969 -45.27,0 -87.63,-32.488 -87.63,-100.969 z M 2913.39,134.039 C 2913.39,41.1914 2865.23,0 2774.13,0 2719.58,0 2663.29,24.9492 2644.72,80.0703 h 56.87 c 11.02,-29.0117 44.68,-40.6211 74.86,-40.6211 53.38,0.5821 87.04,22.0508 87.04,88.2108 v 31.918 h -1.16 c -3.49,-15.668 -42.36,-44.687 -88.2,-44.687 -89.96,0 -133.47,71.961 -133.47,139.269 0,67.32 43.51,140.43 133.47,140.43 35.97,0 70.79,-16.238 92.26,-44.102 h 1.16 v 38.301 h 92.27 V 349.91 h -46.43 V 134.039"
         style="fill:#8b8c8f;fill-opacity:1;fill-rule:nonzero;stroke:none"
         id="path30" /><path
         d="m 3129.22,154.352 c 43.53,0 87.05,37.136 87.05,100.968 0,63.84 -43.52,99.809 -87.05,99.809 -60.92,0 -87.61,-49.899 -87.61,-99.809 0,-51.64 26.69,-100.968 87.61,-100.968 z m 132.31,5.226 h 45.26 v -38.887 h -89.36 v 40.618 h -1.74 c -18.57,-27.27 -56.87,-46.418 -91.11,-46.418 -82.97,0 -132.89,62.089 -132.89,140.429 0,78.34 49.92,139.27 132.89,139.27 34.24,0 72.54,-19.731 91.11,-46.418 h 1.74 v 40.617 h 89.36 V 349.91 h -45.26 V 159.578"
         style="fill:#8b8c8f;fill-opacity:1;fill-rule:nonzero;stroke:none"
         id="path32" /><path
         d="m 3354.35,120.691 v 38.887 h 47 v 341.211 h -45.84 v 38.871 h 95.74 V 159.578 h 44.69 v -38.887 h -141.59"
         style="fill:#8b8c8f;fill-opacity:1;fill-rule:nonzero;stroke:none"
         id="path34" /></g></g></svg>
